<svg width="32" height="32" viewBox="0 0 32 32" fill="none" xmlns="http://www.w3.org/2000/svg">
<rect width="32" height="32" rx="8" fill="#FDDDD1"/>
<path fill-rule="evenodd" clip-rule="evenodd" d="M15.77 22.7806C15.6631 22.7806 14.0469 22.4775 14.0469 20.3204C14.0469 18.2714 15.2385 17.9317 15.1538 15.8837C15.1469 15.718 15.2554 15.5966 15.3585 15.6531C15.9623 15.9853 17.5469 17.0959 17.5469 19.5938C17.5469 22.6799 15.8769 22.7806 15.77 22.7806ZM14.6046 8.03142C14.3208 7.90531 14.0231 8.17542 14.0415 8.54531C14.2746 13.1044 11 13.862 11 18.4239C11 23.2295 15.4415 23.9034 15.7354 23.9034C16.0292 23.9034 20.6177 23.6785 20.6177 16.807C20.6177 11.2437 16.2638 8.77213 14.6046 8.03142Z" fill="#FC4B05"/>
</svg>
