<svg width="12" height="14" viewBox="0 0 12 14" fill="none" xmlns="http://www.w3.org/2000/svg">
<path fill-rule="evenodd" clip-rule="evenodd" d="M3.95066 9.92683H7.54142C7.81204 9.92683 8.03647 9.70016 8.03647 9.42683C8.03647 9.1535 7.81204 8.9335 7.54142 8.9335H3.95066C3.68003 8.9335 3.45561 9.1535 3.45561 9.42683C3.45561 9.70016 3.68003 9.92683 3.95066 9.92683ZM6.18168 5.60016H3.95066C3.68003 5.60016 3.45561 5.82683 3.45561 6.10016C3.45561 6.3735 3.68003 6.5935 3.95066 6.5935H6.18168C6.45231 6.5935 6.67673 6.3735 6.67673 6.10016C6.67673 5.82683 6.45231 5.60016 6.18168 5.60016ZM10.8922 5.01724C11.0474 5.01545 11.2163 5.0135 11.3698 5.0135C11.5348 5.0135 11.6668 5.14683 11.6668 5.3135V10.6735C11.6668 12.3268 10.3401 13.6668 8.70313 13.6668H3.44901C1.73284 13.6668 0.333496 12.2602 0.333496 10.5268V3.34016C0.333496 1.68683 1.66683 0.333496 3.31039 0.333496H6.83515C7.00676 0.333496 7.13878 0.473496 7.13878 0.640163V2.78683C7.13878 4.00683 8.13548 5.00683 9.3434 5.0135C9.62554 5.0135 9.87428 5.0156 10.092 5.01745C10.2613 5.01889 10.4119 5.02016 10.5447 5.02016C10.6387 5.02016 10.7605 5.01876 10.8922 5.01724ZM11.0742 4.04416C10.5316 4.04616 9.89204 4.04416 9.43198 4.0395C8.70195 4.0395 8.10063 3.43216 8.10063 2.69483V0.937496C8.10063 0.650163 8.44584 0.507496 8.6432 0.714829C9.00043 1.08999 9.49136 1.60569 9.98003 2.11902C10.4674 2.63101 10.9526 3.14065 11.3006 3.50616C11.4934 3.70816 11.3521 4.0435 11.0742 4.04416Z" fill="#333333"/>
</svg>
