<svg width="35" height="34" viewBox="0 0 35 34" fill="none" xmlns="http://www.w3.org/2000/svg">
<path fill-rule="evenodd" clip-rule="evenodd" d="M25.8513 21.3354C26.5413 21.3354 27.1013 20.7754 27.1013 20.0854V16.9987C27.1013 16.3087 26.5413 15.7487 25.8513 15.7487H16.3647C15.8247 13.9704 14.188 12.6637 12.2347 12.6637C9.84467 12.6637 7.89967 14.6087 7.89967 16.9987C7.89967 19.3904 9.84467 21.3354 12.2347 21.3354C14.188 21.3354 15.8247 20.0287 16.3647 18.2487H19.8847V20.0854C19.8847 20.7754 20.4447 21.3354 21.1347 21.3354C21.8247 21.3354 22.3847 20.7754 22.3847 20.0854V18.2487H24.6013V20.0854C24.6013 20.7754 25.1613 21.3354 25.8513 21.3354ZM10.2763 0.332031H24.7247C30.3713 0.332031 34.1663 4.29536 34.1663 10.1937V23.8054C34.1663 29.7037 30.3713 33.6654 24.723 33.6654H10.2763C4.62801 33.6654 0.833008 29.7037 0.833008 23.8054V10.1937C0.833008 4.29536 4.62801 0.332031 10.2763 0.332031ZM10.3982 17.0002C10.3982 15.9869 11.2232 15.1635 12.2348 15.1635C13.2465 15.1635 14.0715 15.9869 14.0715 17.0002C14.0715 18.0119 13.2465 18.8352 12.2348 18.8352C11.2232 18.8352 10.3982 18.0119 10.3982 17.0002Z" fill="#666666"/>
</svg>
