<svg width="14" height="10" viewBox="0 0 14 10" fill="none" xmlns="http://www.w3.org/2000/svg">
<path fill-rule="evenodd" clip-rule="evenodd" d="M3.07552 0H6.9369C8.55158 0 9.67892 1.11269 9.67892 2.70728V7.29272C9.67892 8.88731 8.55158 10 6.9369 10H3.07552C1.46084 10 0.333496 8.88731 0.333496 7.29272V2.70728C0.333496 1.11269 1.46084 0 3.07552 0ZM12.3055 1.58599C12.5982 1.43709 12.9415 1.45266 13.2208 1.62863C13.5002 1.80393 13.6668 2.10849 13.6668 2.44149V7.55892C13.6668 7.89259 13.5002 8.19648 13.2208 8.37178C13.0682 8.46721 12.8975 8.51594 12.7255 8.51594C12.5822 8.51594 12.4388 8.4821 12.3048 8.41374L11.3175 7.9156C10.9521 7.73015 10.7255 7.3579 10.7255 6.94436V3.05536C10.7255 2.64115 10.9521 2.2689 11.3175 2.08481L12.3055 1.58599Z" fill="#333333"/>
</svg>
